@startuml
' Define styles for the containers
skinparam class {
    BackgroundColor<<entity>> Wheat
    BackgroundColor<<invoiceController>> LightSkyBlue
    BackgroundColor<<invoiceService>> LightGreen
    BackgroundColor<<invoiceRepository>> LightCoral
    BackgroundColor<<mapper>> Khaki
}


' Customer Container
package "Customer Components" <<customer>> {
    ' CustomerAccountController
    class "<<controller>>\nCustomerAccountController" as customerController {
        + getAllCustomerAccounts() : ResponseEntity<List<CustomerAccountResponseModel>>
        + getCustomerAccountByCustomerId(String customerId) : ResponseEntity<CustomerAccountResponseModel>
        + updateCustomerAccountByCustomerId(String customerId, CustomerAccountRequestModel customerAccountRequestModel) : ResponseEntity<CustomerAccountResponseModel>
        + deleteCustomerAccountByCustomerId(String customerId) : ResponseEntity<Void>
    }

    ' CustomerAccountService interface
    interface "<<service>>\nCustomerAccountService" as customerService {
        + getAllCustomerAccounts() : List<CustomerAccountResponseModel>
        + getCustomerAccountByCustomerId(String customerId) : CustomerAccountResponseModel
        + updateCustomerAccountByCustomerId(String customerId, CustomerAccountRequestModel customerAccountRequestModel) : CustomerAccountResponseModel
        + deleteCustomerAccountByCustomerId(String customerId) : void
    }

    ' CustomerAccountServiceImpl class
    class "<<service>>\nCustomerAccountServiceImpl" as customerServiceImpl {
        - customerAccountRepository : CustomerAccountRepository
        - customerAccountResponseMapper : CustomerAccountResponseMapper
        - customerAccountRequestMapper : CustomerAccountRequestMapper
        + getAllCustomerAccounts() : List<CustomerAccountResponseModel>
        + getCustomerAccountByCustomerId(String customerId) : CustomerAccountResponseModel
        + updateCustomerAccountByCustomerId(String customerId, CustomerAccountRequestModel customerAccountRequestModel) : CustomerAccountResponseModel
        + deleteCustomerAccountByCustomerId(String customerId) : void
    }

    ' CustomerAccountRepository interface
    interface "<<repository>>\nCustomerAccountRepository" as customerRepository {
        + findAll() : List<CustomerAccount>
        + findCustomerAccountByCustomerAccountIdentifier_CustomerId(String customerId) : CustomerAccount
        + save(CustomerAccount customerAccount) : CustomerAccount
        + delete(CustomerAccount customerAccount) : void
    }

    ' CustomerAccountResponseMapper class
    class "<<mapper>>\nCustomerAccountResponseMapper" as customerResponseMapper {
        + entityToResponseModelList(List<CustomerAccount> customerAccounts) : List<CustomerAccountResponseModel>
        + entityToResponseModel(CustomerAccount customerAccount) : CustomerAccountResponseModel
    }

    ' CustomerAccountRequestMapper class
    class "<<mapper>>\nCustomerAccountRequestMapper" as customerRequestMapper {
        + requestModelToEntity(CustomerAccountRequestModel customerAccountRequestModel) : CustomerAccount
    }

    ' CustomerAccountIdentifier class
    class "<<entity>>\nUserIdentifier" as customerIdentifier {
        - customerId : String
        + getCustomerId() : String
    }
}

' Vehicle Container
package "Vehicle Components" <<vehicle>> {
    ' VehicleController
    class "<<controller>>\nVehicleController" as vehicleController {
        - VehicleService : vehicleService
        + getAllVehiclesByCustomerId(String customerId) : ResponseEntity<List<VehicleResponseModel>>
        + getVehicleByVehicleId(String customerId, String vehicleId) : ResponseEntity<VehicleResponseModel>
        + addVehicleToCustomerAccount(String customerId, VehicleRequestModel vehicleRequestModel) : ResponseEntity<VehicleResponseModel>
        + updateVehicleByVehicleId(VehicleRequestModel vehicleRequestModel, String customerId, String vehicleId) : ResponseEntity<VehicleResponseModel>
        + deleteVehicleByVehicleId(String customerId, String vehicleId) : ResponseEntity<Void>
    }

    ' VehicleService interface
    interface "VehicleService" as vehicleService {
        + getAllVehiclesByCustomerId(String customerId) : List<VehicleResponseModel>
        + getVehicleByVehicleId(String customerId, String vehicleId) : VehicleResponseModel
        + addVehicleToCustomerAccount(String customerId, VehicleRequestModel vehicleRequestModel) : VehicleResponseModel
        + updateVehicleByVehicleId(VehicleRequestModel vehicleRequestModel, String customerId, String vehicleId) : VehicleResponseModel
        + deleteVehicleByVehicleId(String customerId, String vehicleId) : void
    }

    ' VehicleServiceImpl class
    class "<<service>>\nVehicleServiceImpl" as vehicleServiceImpl {
        - vehicleRepository : VehicleRepository
        - vehicleResponseMapper : VehicleResponseMapper
        - vehicleRequestMapper : VehicleRequestMapper
        + getAllVehiclesByCustomerId(String customerId) : List<VehicleResponseModel>
        + getVehicleByVehicleId(String customerId, String vehicleId) : VehicleResponseModel
        + addVehicleToCustomerAccount(String customerId, VehicleRequestModel vehicleRequestModel) : VehicleResponseModel
        + updateVehicleByVehicleId(VehicleRequestModel vehicleRequestModel, String customerId, String vehicleId) : VehicleResponseModel
        + deleteVehicleByVehicleId(String customerId, String vehicleId) : void
    }

    ' VehicleRepository interface
    interface "<<repository>>\nVehicleRepository" as vehicleRepository {
        + findAllVehiclesByCustomerId(String customerId) : List<Vehicle>
        + findVehicleByCustomerIdAndVehicleIdentifier_VehicleId(String customerId, String vehicleId) : Vehicle
        + save(Vehicle vehicle) : Vehicle
        + delete(Vehicle vehicle) : void
    }

    ' VehicleResponseMapper class
    class "<<mapper>>\nVehicleResponseMapper" as vehicleResponseMapper {
        + entityToResponseModel(Vehicle vehicle) : VehicleResponseModel
        + entityToResponseModelList(List<Vehicle> vehicles) : List<VehicleResponseModel>
    }

    ' VehicleRequestMapper class
    class "<<mapper>>\nVehicleRequestMapper" as vehicleRequestMapper {
        + requestToEntity(VehicleRequestModel requestModel) : Vehicle
    }

    ' Vehicle class
    class "<<entity>>\nVehicle" as vehicle {
        - id : String
        - vehicleIdentifier : VehicleIdentifier
        - customerId : String
        - make : String
        - model : String
        - year : Integer
        - transmissionType : TransmissionType
        - mileage : Integer
    }

    ' VehicleIdentifier class
    class "VehicleIdentifier" as vehicleIdentifier {
        - vehicleId : String
        + getVehicleId() : String
    }

    ' TransmissionType enum
    enum "TransmissionType" as transmissionType {
      MANUAL
      AUTOMATIC
    }
}

' Appointment Components
package "Appointment Components" <<appointment>> {
' AppointmentController
class "<<controller>>\nAppointmentController" as appointmentController {
    - appointmentService : AppointmentService
    + getAllAppointments() : ResponseEntity<List<AppointmentResponseModel>>
    + getAllAppointmentsByCustomerId(String customerId) : ResponseEntity<List<AppointmentResponseModel>>
    + getAppointmentByAppointmentId(String appointmentId) : ResponseEntity<AppointmentResponseModel>
    + addAppointment(AppointmentRequestModel appointmentRequestModel) : ResponseEntity<AppointmentResponseModel>
    + updateAppointmentByAppointmentId(AppointmentRequestModel appointmentRequestModel, String appointmentId) : ResponseEntity<AppointmentResponseModel>
    + updateAppointmentStatus(String appointmentId, boolean isConfirm) : ResponseEntity<AppointmentResponseModel>
    + deleteAppointmentByAppointmentId(String appointmentId) : ResponseEntity<Void>
    + deleteAllCancelledAppointments() : ResponseEntity<Void>
}

' AppointmentService interface
interface "AppointmentService" as appointmentService {
    + getAllAppointments() : List<AppointmentResponseModel>
    + getAllAppointmentsByCustomerId(String customerId) : List<AppointmentResponseModel>
    + getAppointmentByAppointmentId(String appointmentId) : AppointmentResponseModel
    + addAppointment(AppointmentRequestModel appointmentRequestModel) : AppointmentResponseModel
    + updateAppointmentByAppointmentId(AppointmentRequestModel appointmentRequestModel, String appointmentId) : AppointmentResponseModel
    + updateAppointmentStatus(String appointmentId, boolean isConfirm) : ResponseEntity<AppointmentResponseModel>
    + deleteAppointmentByAppointmentId(String appointmentId) : void
    + deleteAllCancelledAppointments() : void

}

' AppointmentServiceImpl class
class "<<service>>\nAppointmentServiceImpl" as appointmentServiceImpl {
    - appointmentRepository : AppointmentRepository
    - appointmentResponseMapper : AppointmentResponseMapper
    - appointmentRequestMapper : AppointmentRequestMapper
    - emailService : EmailService
     + getAllAppointments() : List<AppointmentResponseModel>
     + getAllAppointmentsByCustomerId(String customerId) : List<AppointmentResponseModel>
     + getAppointmentByAppointmentId(String appointmentId) : AppointmentResponseModel
     + addAppointment(AppointmentRequestModel appointmentRequestModel) : AppointmentResponseModel
     + updateAppointmentByAppointmentId(AppointmentRequestModel appointmentRequestModel, String appointmentId) : AppointmentResponseModel
     + updateAppointmentStatus(String appointmentId, boolean isConfirm) : ResponseEntity<AppointmentResponseModel>
     + deleteAppointmentByAppointmentId(String appointmentId) : void
     + deleteAllCancelledAppointments() : void
}
appointmentServiceImpl .up.|> appointmentService

' AppointmentRepository interface
interface "<<repository>>\nAppointmentRepository" as appointmentRepository {

    + findAppointmentByAppointmentIdentifier_AppointmentId(String appointmentId): Appointment
    + findAllAppointmentsByCustomerId(String customerId): List<Appointment>
    + findAllAppointmentsByStatus(String status): List<Appointment>
    + save(Appointment appointment) : Appointment
    + delete(Appointment appointment) : void
}


  ' AppointmentResponseMapper class
  class "<<mapper>>\nAppointmentResponseMapper" as appointmentResponseMapper {
      + entityToResponseModel(entity: Appointment) : AppointmentResponseModel
      + entityToResponseModelList(entities: List<Appointment>) : List<AppointmentResponseModel>
  }

  ' AppointmentRequestMapper class
  class "<<mapper>>\nAppointmentRequestMapper" as appointmentRequestMapper {
      + requestModelToEntity(appointmentRequestModel: AppointmentRequestModel) : Appointment
  }

' Appointment class
class "<<entity>>\nAppointment" as appointment {
    - id : UUID
    - appointmentId : AppointmentIdentifier
    - vehicleId : VehicleIdentifier
    - customerId : CustomerAccountIdentifier
    - appointmentDate : DateTime
    - services : String
    - comments : String
    - status : Status
}

' AppointmentIdentifier class
class "<<entity>>\nAppointmentIdentifier" as appointmentIdentifier {
    - appointmentId : UUID
    + getAppointmentId() : UUID
}

' Status enum
enum "Status" as status {
    PENDING
    CONFIRMED
    COMPLETED
    CANCELLED
}


  ' EmailService for managing email-related functionalities
  class "<<service>>\nEmailService" as emailService {
      + sendEmail(appointmentID: UUID) : void
  }

}

' Authentication Components
' Authentication Components
package "Authentication Components" <<authentication>> {
' AuthController for handling authentication endpoints
class "<<controller>>\nAuthController" as authController {
    + logout(token: String) : ResponseEntity<String>
    + googleLogin(JWT: String) : ResponseEntity<?>
    + facebookToken(token: String) : ResponseEntity<?>
    + authenticateUser(loginRequest: LoginRequest) : ResponseEntity<JWTResponse>
    + registerUser(signupRequest: SignupRequest) : ResponseEntity<MessageResponse>
    - generateResponse(user: User) : ResponseEntity<?>
}


' UserRepository interface for managing user data
interface "<<repository>>\nUserRepository" as userRepository {
    + findByUsername(username: String) : User
    + save(user: User) : User
    + deleteByUsername(username: String) : void
    + findByEmail(email: String) : Optional<User>
    + findAllByRoles_Name(roleName: String) : List<User>
    + findUserByUserIdentifier_UserId(userId: String) : User
    + existsByEmail(email: String) : Boolean
}

' RoleRepository interface for managing roles
interface "<<repository>>\nRoleRepository" as roleRepository {
    + findByName(name: ERole) : Optional<Role>
}

' OAuth service interface
interface "<<service>>\noAuthService" as oAuthService {
    + googleLogin(JWT: String): User
    + facebookLogin(token: String): User
}

' TokenService interface for OAuth
interface "<<service>>\nTokenService" as tokenServiceOAuth {
    + verifyGoogleToken(jwtToken: String): String
    + verifyFacebookToken(accessToken: String): String
    + verifyInstagramToken(accessToken: String): String
}

' ERole enum for roles
enum "<<entity>>\nERole" as ERole {
    ROLE_CUSTOMER
    ROLE_ADMIN
}

' Role class
class "<<entity>>\nRole" as roleClass {
    - id: int
    - name: ERole
}

' User class with modifications
class "<<entity>>\nUser" as userModified {
    - id: Integer
    - userIdentifier: UserIdentifier
    - firstName: String
    - lastName: String
    - phoneNumber: String
    - email: String
    - picture: String
    - password: String
    - roles: Set<Role>
}

' UserIdentifier embedded class
class "<<entity>>\nUserIdentifier" as userIdentifier {
    - userId: String
}


' JWTResponse class
class "\nJWTResponse" as jwtResponse {
    + token: String
    + type: String
    + id: String
    + firstName: String
    + lastName: String
    + phoneNumber: String
    + email: String
    + picture: String
    + roles: List<String>
}

' MessageResponse class
class "<<entity>>\nMessageResponse" as messageResponse {
    + MessageResponse(message: String)
}

' AuthEntryPointJwt class
class "<<utils>>\nAuthEntryPointJwt" as authEntryPointJwt {
    + commence(request: HttpServletRequest, response: HttpServletResponse, authException: AuthenticationException): void
}

' AuthTokenFilter class
class "<<utils>>\nAuthTokenFilter" as authTokenFilter {
    + doFilterInternal(request: HttpServletRequest, response: HttpServletResponse, filterChain: FilterChain): void
    + parseJwt(request: HttpServletRequest): String
}

' JwtUtils class
class "<<utils>>\nJwtUtils" as jwtUtils {
    + generateJwtToken(authentication: Authentication): String
    + generateJwtResponseForOAuth(email: String): String
    + getEmailFromJwtToken(token: String): String
    + validateJwtToken(authToken: String): boolean
}

' UserDetailsImpl class
class "<<utils>>\nUserDetailsImpl" as userDetailsImpl {
    - id: Integer
    - userId: String
    - email: String
    - firstName: String
    - lastName: String
    - phoneNumber: String
    - password: String
    - authorities: Collection<? extends GrantedAuthority>
    + UserDetailsImpl(id: Integer, UUID: String, firstName: String, lastName: String, phoneNumber: String, email: String, password: String, authorities: Collection<? extends GrantedAuthority>)
    + build(user: User): UserDetailsImpl
    + getAuthorities(): Collection<? extends GrantedAuthority>
    + getPassword(): String
    + getUsername(): String
    + isAccountNonExpired(): boolean
    + isAccountNonLocked(): boolean
    + isCredentialsNonExpired(): boolean
    + isEnabled(): boolean
    + equals(o: Object): boolean
}

' UserDetailsServiceImpl class
class "<<utils>>\nUserDetailsServiceImpl" as userDetailsServiceImpl {
    - userRepository: UserRepository
    + loadUserByUsername(email: String): UserDetails
}

' WebSecurityConfig class
class "<<utils>>\nWebSecurityConfig" as webSecurityConfig {
    - userDetailsService: UserDetailsServiceImpl
    - unauthorizedHandler: AuthEntryPointJwt
    + authenticationJwtTokenFilter(): AuthTokenFilter
    + authenticationProvider(): DaoAuthenticationProvider
    + passwordEncoder(): PasswordEncoder
    + authenticationManager(authConfig: AuthenticationConfiguration): AuthenticationManager
    + filterChain(http: HttpSecurity): SecurityFilterChain
    + corsConfigurationSource(): CorsConfigurationSource
}

' Relationships

authController --|> oAuthService: uses
oAuthService --|> tokenServiceOAuth: uses
tokenServiceOAuth --|> userDetailsServiceImpl: uses
userDetailsServiceImpl --|> userDetailsImpl: uses
userDetailsImpl --|> roleClass: uses
authController --|> userDetailsServiceImpl: uses
userDetailsServiceImpl --|> userRepository: uses
authController --|> userDetailsImpl: uses
authController --|> userRepository: uses
authController --|> jwtResponse: creates
authController --|> messageResponse: creates
authController --|> jwtUtils: uses
authController --|> roleRepository: uses
userDetailsImpl --|> userModified: creates
userModified --|> userIdentifier: contains
userModified --|> roleClass: contains
userModified --|> ERole: contains
webSecurityConfig --|> userDetailsServiceImpl: uses
webSecurityConfig --|> authEntryPointJwt: creates
webSecurityConfig --|> authTokenFilter: creates
webSecurityConfig --|> roleRepository: uses
webSecurityConfig --|> jwtUtils: uses

}


' Invoice Container
package "Invoice Components" <<invoice>> {

' InvoiceController
class "<<controller>>\nInvoiceController" as invoiceController {
    - InvoiceService : invoiceService
    + getAllInvoices() : ResponseEntity<List<InvoiceResponseModel>>
    + getAllInvoicesByCustomerId(String customerId) : ResponseEntity<List<InvoiceResponseModel>>
    + getInvoiceByInvoiceId(String invoiceId) : ResponseEntity<InvoiceResponseModel>
    + addInvoice(InvoiceRequestModel invoiceRequestModel) : ResponseEntity<InvoiceResponseModel>
    + updateInvoiceByInvoiceId(InvoiceRequestModel invoiceRequestModel, String invoiceId) : ResponseEntity<InvoiceResponseModel>
    + deleteInvoiceByInvoiceId(String invoiceId) : ResponseEntity<Void>
}

' InvoiceService interface
interface "InvoiceService" as invoiceService {
    + getAllInvoices() : List<InvoiceResponseModel>
    + getAllInvoicesByCustomerId(String customerId) : List<InvoiceResponseModel>
    + getInvoiceByInvoiceId(String invoiceId) : InvoiceResponseModel
    + addInvoice(InvoiceRequestModel invoiceRequestModel) : InvoiceResponseModel
    + updateInvoiceByInvoiceId(InvoiceRequestModel invoiceRequestModel, String invoiceId) : InvoiceResponseModel
    + deleteInvoiceByInvoiceId(String invoiceId) : void
}

' InvoiceServiceImpl class
class "<<service>>\nInvoiceServiceImpl" as invoiceServiceImpl {
    - invoiceRepository : InvoiceRepository
    - invoiceResponseMapper : InvoiceResponseMapper
    - invoiceRequestMapper : InvoiceRequestMapper
     + getAllInvoices() : List<InvoiceResponseModel>
     + getAllInvoicesByCustomerId(String customerId) : List<InvoiceResponseModel>
     + getInvoiceByInvoiceId(String invoiceId) : InvoiceResponseModel
     + addInvoice(InvoiceRequestModel invoiceRequestModel) : InvoiceResponseModel
     + updateInvoiceByInvoiceId(InvoiceRequestModel invoiceRequestModel, String invoiceId) : InvoiceResponseModel
     + deleteInvoiceByInvoiceId(String invoiceId) : void
}
invoiceServiceImpl .up.|> invoiceService

' InvoiceRepository interface
interface "<<repository>>\nInvoiceRepository" as invoiceRepository {
        + findInvoiceByInvoiceIdentifier_InvoiceId(String invoiceId): Invoice
        + findAllInvoicesByCustomerId(String customerId): List<Invoice>
        + save(Invoice invoice) : Invoice
        + delete(Invoice invoice) : void
}

' InvoiceResponseMapper class
class "<<mapper>>\nInvoiceResponseMapper" as invoiceResponseMapper {
    + entityToResponseModel(Invoice invoice) : InvoiceResponseModel
    + entityToResponseModelList(List<Invoice> invoices) : List<InvoiceResponseModel>
}

' InvoiceRequestMapper class
class "<<mapper>>\nInvoiceRequestMapper" as invoiceRequestMapper {
    + requestToEntity(InvoiceRequestModel requestModel) : Invoice
}

' Invoice class
class "<<entity>>\nInvoice" as invoice {
    - id : Integer
    - invoiceIdentifier : InvoiceIdentifier
    - customerId : String
    - invoiceDate : DateTime
    - mechanicNotes: String
    - sumOfServices : Decimal
}

' InvoiceIdentifier class
class "InvoiceIdentifier" as invoiceIdentifier {
    - invoiceId : String
    + getInvoiceId() : String
}

}


' Customer Relationships
customerController --> customerService : uses
customerServiceImpl --> customerRepository : uses
customerServiceImpl --> customerResponseMapper : uses
customerServiceImpl --> customerRequestMapper : uses


' Vehicle Relationships
vehicleController --> vehicleService : uses
vehicleServiceImpl --> vehicleRepository : uses
vehicleServiceImpl --> vehicleResponseMapper : uses
vehicleServiceImpl --> vehicleRequestMapper : uses
vehicle --> vehicleIdentifier : contains
vehicle --> transmissionType : uses



' Appointment Relationships
appointmentController --> appointmentService : uses
appointmentServiceImpl --> appointmentRepository : uses
appointmentServiceImpl --> appointmentResponseMapper : uses
appointmentServiceImpl --> appointmentRequestMapper : uses
appointmentServiceImpl --> emailService : uses
appointment --> appointmentIdentifier : contains
appointment --> vehicleIdentifier : has
appointment --> customerIdentifier : has
appointment --> status : has
emailService --> appointmentRepository : uses

' Invoice Relationships
invoiceController --> invoiceService : uses
invoiceServiceImpl --> invoiceRepository : uses
invoiceServiceImpl --> invoiceResponseMapper : uses
invoiceServiceImpl --> invoiceRequestMapper : uses
invoice --> invoiceIdentifier : contains
invoice --> customerIdentifier : has


' Relationships within Authentication Components
userRepository --> userModified : retrieves/stores
userModified --> customerIdentifier : has

@enduml
